<?xml version="1.0" encoding="utf-8"?>
<svg version="1.1" id="Layer_1" xmlns="http://www.w3.org/2000/svg" xmlns:xlink="http://www.w3.org/1999/xlink" x="0px" y="0px"
	width="567.33753" height="478.01621" viewBox="0 0 1175.756 1680.53" enable-background="new 0 0 1175.756 1680.53" xml:space="preserve">
<g>
	<g>
		<g>
			<g>
				
					<ellipse transform="matrix(0.9223 -0.3865 0.3865 0.9223 -116.7194 381.3864)" cx="889.97" cy="480.92" rx="15.993" ry="15.993"/>
				
					<ellipse transform="matrix(0.896 -0.4441 0.4441 0.896 -106.1602 434.4758)" cx="874.442" cy="443.87" rx="15.993" ry="15.993"/>
				
					<ellipse transform="matrix(0.8328 -0.5536 0.5536 0.8328 -83.6046 541.3438)" cx="854.363" cy="409.075" rx="15.993" ry="15.993"/>
				
					<ellipse transform="matrix(0.7565 -0.654 0.654 0.7565 -44.4954 634.6776)" cx="830.054" cy="377.091" rx="15.993" ry="15.993"/>
				<ellipse transform="matrix(0.6686 -0.7436 0.7436 0.6686 6.6671 711.788)" cx="801.921" cy="348.414" rx="15.993" ry="15.993"/>
				
					<ellipse transform="matrix(0.5706 -0.8212 0.8212 0.5706 65.1857 771.6169)" cx="770.424" cy="323.477" rx="15.993" ry="15.993"/>
				<ellipse transform="matrix(0.4637 -0.886 0.886 0.4637 126.584 814.4482)" cx="736.065" cy="302.66" rx="15.993" ry="15.993"/>
				<ellipse transform="matrix(0.3493 -0.937 0.937 0.3493 186.8063 841.595)" cx="699.378" cy="286.291" rx="15.993" ry="15.993"/>
				
					<ellipse transform="matrix(0.2289 -0.9735 0.9735 0.2289 242.2915 855.1647)" cx="660.929" cy="274.647" rx="15.993" ry="15.993"/>
				
					<ellipse transform="matrix(0.1043 -0.9945 0.9945 0.1043 290.0317 857.918)" cx="621.321" cy="267.937" rx="15.993" ry="15.993"/>
				
					<ellipse transform="matrix(0.9998 -0.0219 0.0219 0.9998 -5.6853 12.7758)" cx="581.182" cy="266.283" rx="15.993" ry="15.993"/>
				
					<ellipse transform="matrix(0.9892 -0.1467 0.1467 0.9892 -33.7018 82.2831)" cx="541.154" cy="269.691" rx="15.993" ry="15.993"/>
				
					<ellipse transform="matrix(0.9633 -0.2684 0.2684 0.9633 -56.2064 144.8751)" cx="501.858" cy="278.044" rx="15.993" ry="15.993"/>
				
					<ellipse transform="matrix(0.9222 -0.3867 0.3867 0.9222 -76.5181 202.0212)" cx="463.904" cy="291.211" rx="15.993" ry="15.993"/>
				
					<ellipse transform="matrix(0.8661 -0.4998 0.4998 0.8661 -97.1838 255.2465)" cx="427.908" cy="309.048" rx="15.993" ry="15.993"/>
				
					<ellipse transform="matrix(0.7962 -0.605 0.605 0.7962 -120.051 306.1797)" cx="394.454" cy="331.288" rx="15.993" ry="15.993"/>
				
					<ellipse transform="matrix(0.7139 -0.7002 0.7002 0.7139 -146.2245 357.2327)" cx="364.065" cy="357.564" rx="15.993" ry="15.993"/>
				<ellipse transform="matrix(0.6208 -0.784 0.784 0.6208 -175.871 411.2968)" cx="337.207" cy="387.44" rx="15.993" ry="15.993"/>
				
					<ellipse transform="matrix(0.5182 -0.8553 0.8553 0.5182 -208.1542 471.377)" cx="314.286" cy="420.432" rx="15.993" ry="15.993"/>
				
					<ellipse transform="matrix(0.4074 -0.9133 0.9133 0.4074 -241.2575 540.2548)" cx="295.655" cy="456.024" rx="15.993" ry="15.993"/>
				
					<ellipse transform="matrix(0.2898 -0.9571 0.9571 0.2898 -272.4705 620.155)" cx="281.618" cy="493.665" rx="15.993" ry="15.993"/>
				<ellipse transform="matrix(0.167 -0.986 0.986 0.167 -298.3592 712.4047)" cx="272.42" cy="532.771" rx="15.993" ry="15.993"/>
				
					<ellipse transform="matrix(0.0412 -0.9991 0.9991 0.0412 -315.0703 817.1044)" cx="268.229" cy="572.724" rx="15.993" ry="15.993"/>
				
					<ellipse transform="matrix(0.9964 -0.0846 0.0846 0.9964 -50.8996 24.9718)" cx="269.113" cy="612.887" rx="15.993" ry="15.993"/>
				
					<ellipse transform="matrix(0.9781 -0.2079 0.2079 0.9781 -129.6786 71.4402)" cx="275.015" cy="652.625" rx="15.993" ry="15.993"/>
				
					<ellipse transform="matrix(0.9447 -0.328 0.328 0.9447 -210.9268 131.9673)" cx="285.786" cy="691.328" rx="15.993" ry="15.993"/>
				<ellipse transform="matrix(0.896 -0.4441 0.4441 0.896 -292.11 209.5595)" cx="301.314" cy="728.378" rx="15.993" ry="15.993"/>
				
					<ellipse transform="matrix(0.8328 -0.5536 0.5536 0.8328 -368.7325 305.5127)" cx="321.393" cy="763.173" rx="15.993" ry="15.993"/>
				
					<ellipse transform="matrix(0.7565 -0.654 0.654 0.7565 -435.8513 419.7127)" cx="345.702" cy="795.156" rx="15.993" ry="15.993"/>
				
					<ellipse transform="matrix(0.6686 -0.7436 0.7436 0.6686 -488.7312 551.0081)" cx="373.835" cy="823.834" rx="15.993" ry="15.993"/>
				
					<ellipse transform="matrix(0.5706 -0.8212 0.8212 0.5706 -522.9895 697.3608)" cx="405.332" cy="848.77" rx="15.993" ry="15.993"/>
				
					<ellipse transform="matrix(0.4637 -0.886 0.886 0.4637 -534.6416 855.8964)" cx="439.691" cy="869.588" rx="15.993" ry="15.993"/>
				
					<ellipse transform="matrix(0.3493 -0.937 0.937 0.3493 -520.1767 1022.8257)" cx="476.378" cy="885.956" rx="15.993" ry="15.993"/>
				
					<ellipse transform="matrix(0.2289 -0.9735 0.9735 0.2289 -476.7836 1193.3057)" cx="514.827" cy="897.6" rx="15.993" ry="15.993"/>
				
					<ellipse transform="matrix(0.1043 -0.9945 0.9945 0.1043 -402.7778 1361.3865)" cx="554.435" cy="904.31" rx="15.993" ry="15.993"/>
				
					<ellipse transform="matrix(0.9998 -0.0219 0.0219 0.9998 -19.6738 13.2217)" cx="594.574" cy="905.965" rx="15.993" ry="15.993"/>
				
					<ellipse transform="matrix(0.9892 -0.1467 0.1467 0.9892 -125.5089 102.832)" cx="634.602" cy="902.556" rx="15.993" ry="15.993"/>
				
					<ellipse transform="matrix(0.9633 -0.2684 0.2684 0.9633 -215.246 213.6438)" cx="673.898" cy="894.204" rx="15.993" ry="15.993"/>
				
					<ellipse transform="matrix(0.9222 -0.3867 0.3867 0.9222 -285.2939 343.7671)" cx="711.852" cy="881.036" rx="15.993" ry="15.993"/>
				
					<ellipse transform="matrix(0.8661 -0.4998 0.4998 0.8661 -331.3271 489.3398)" cx="747.848" cy="863.199" rx="15.993" ry="15.993"/>
				
					<ellipse transform="matrix(0.7962 -0.605 0.605 0.7962 -349.5813 644.1137)" cx="781.302" cy="840.959" rx="15.993" ry="15.993"/>
				
					<ellipse transform="matrix(0.7139 -0.7002 0.7002 0.7139 -338.2552 801.4612)" cx="811.691" cy="814.683" rx="15.993" ry="15.993"/>
				
					<ellipse transform="matrix(0.6208 -0.784 0.784 0.6208 -297.2805 955.0396)" cx="838.549" cy="784.808" rx="15.993" ry="15.993"/>
				
					<ellipse transform="matrix(0.5182 -0.8553 0.8553 0.5182 -227.9293 1099.0408)" cx="861.47" cy="751.815" rx="15.993" ry="15.993"/>
				
					<ellipse transform="matrix(0.4074 -0.9133 0.9133 0.4074 -132.5352 1228.2017)" cx="880.101" cy="716.223" rx="15.993" ry="15.993"/>
				
					<ellipse transform="matrix(0.2898 -0.9571 0.9571 0.2898 -14.4206 1337.7323)" cx="894.138" cy="678.583" rx="15.993" ry="15.993"/>
				<ellipse transform="matrix(0.167 -0.986 0.986 0.167 121.9999 1423.3522)" cx="903.336" cy="639.477" rx="15.993" ry="15.993"/>
				
					<ellipse transform="matrix(0.0412 -0.9991 0.9991 0.0412 271.0857 1481.5527)" cx="907.527" cy="599.523" rx="15.993" ry="15.993"/>
				
					<ellipse transform="matrix(0.9964 -0.0846 0.0846 0.9964 -44.0833 78.7305)" cx="906.643" cy="559.36" rx="15.993" ry="15.993"/>
				
					<ellipse transform="matrix(0.9781 -0.2079 0.2079 0.9781 -88.3522 198.6296)" cx="900.741" cy="519.623" rx="15.993" ry="15.993"/>
			</g>
		</g>
		<g>
			<g>
				
					<ellipse transform="matrix(0.947 -0.3213 0.3213 0.947 -106.1835 331.3739)" cx="951.048" cy="487.448" rx="18.815" ry="18.815"/>
				
					<ellipse transform="matrix(0.9248 -0.3805 0.3805 0.9248 -98.048 389.3772)" cx="935.865" cy="442.691" rx="18.815" ry="18.815"/>
				
					<ellipse transform="matrix(0.8694 -0.4941 0.4941 0.8694 -78.2248 504.4735)" cx="915.155" cy="400.208" rx="18.815" ry="18.815"/>
				
					<ellipse transform="matrix(0.8003 -0.5996 0.5996 0.8003 -38.6673 605.2631)" cx="889.251" cy="360.677" rx="18.815" ry="18.815"/>
				
					<ellipse transform="matrix(0.7188 -0.6952 0.6952 0.7188 15.6655 688.158)" cx="858.588" cy="324.712" rx="18.815" ry="18.815"/>
				
					<ellipse transform="matrix(0.6265 -0.7794 0.7794 0.6265 79.3949 751.3963)" cx="823.67" cy="292.861" rx="18.815" ry="18.815"/>
				
					<ellipse transform="matrix(0.5244 -0.8515 0.8515 0.5244 147.214 794.7783)" cx="785.054" cy="265.61" rx="18.815" ry="18.815"/>
				
					<ellipse transform="matrix(0.4138 -0.9103 0.9103 0.4138 214.1437 819.3616)" cx="743.341" cy="243.389" rx="18.815" ry="18.815"/>
				
					<ellipse transform="matrix(0.2962 -0.9551 0.9551 0.2962 275.6516 827.2391)" cx="699.173" cy="226.568" rx="18.815" ry="18.815"/>
				
					<ellipse transform="matrix(0.1734 -0.9848 0.9848 0.1734 327.7647 821.4161)" cx="653.239" cy="215.443" rx="18.815" ry="18.815"/>
				
					<ellipse transform="matrix(0.0479 -0.9989 0.9989 0.0479 367.2499 805.7055)" cx="606.268" cy="210.207" rx="18.815" ry="18.815"/>
				<ellipse transform="matrix(0.997 -0.0773 0.0773 0.997 -14.6322 43.8443)" cx="559.01" cy="210.922" rx="18.815" ry="18.815"/>
				
					<ellipse transform="matrix(0.9797 -0.2005 0.2005 0.9797 -33.2082 107.1166)" cx="512.208" cy="217.5" rx="18.815" ry="18.815"/>
				
					<ellipse transform="matrix(0.9469 -0.3214 0.3214 0.9469 -49.1137 162.146)" cx="466.583" cy="229.839" rx="18.815" ry="18.815"/>
				
					<ellipse transform="matrix(0.8989 -0.4382 0.4382 0.8989 -65.831 210.3526)" cx="422.875" cy="247.819" rx="18.815" ry="18.815"/>
				
					<ellipse transform="matrix(0.8365 -0.548 0.548 0.8365 -86.1733 253.5785)" cx="381.788" cy="271.174" rx="18.815" ry="18.815"/>
				
					<ellipse transform="matrix(0.761 -0.6487 0.6487 0.761 -112.1044 294.7266)" cx="343.967" cy="299.518" rx="18.815" ry="18.815"/>
				
					<ellipse transform="matrix(0.6739 -0.7388 0.7388 0.6739 -144.4777 337.3903)" cx="309.994" cy="332.376" rx="18.815" ry="18.815"/>
				
					<ellipse transform="matrix(0.5766 -0.817 0.817 0.5766 -182.942 385.4251)" cx="280.386" cy="369.215" rx="18.815" ry="18.815"/>
				
					<ellipse transform="matrix(0.4701 -0.8826 0.8826 0.4701 -225.949 442.5676)" cx="255.6" cy="409.456" rx="18.815" ry="18.815"/>
				
					<ellipse transform="matrix(0.3558 -0.9346 0.9346 0.3558 -270.8166 512.0677)" cx="236.037" cy="452.48" rx="18.815" ry="18.815"/>
				
					<ellipse transform="matrix(0.2353 -0.9719 0.9719 0.2353 -313.8641 596.3021)" cx="222.033" cy="497.62" rx="18.815" ry="18.815"/>
				
					<ellipse transform="matrix(0.1108 -0.9938 0.9938 0.1108 -350.6779 696.3691)" cx="213.836" cy="544.165" rx="18.815" ry="18.815"/>
				<ellipse transform="matrix(0.9999 -0.0149 0.0149 0.9999 -8.7948 3.2207)" cx="211.577" cy="591.374" rx="18.815" ry="18.815"/>
				
					<ellipse transform="matrix(0.9903 -0.1392 0.1392 0.9903 -86.7665 36.1698)" cx="215.243" cy="638.494" rx="18.815" ry="18.815"/>
				
					<ellipse transform="matrix(0.9653 -0.2613 0.2613 0.9653 -171.1139 82.4961)" cx="224.707" cy="684.8" rx="18.815" ry="18.815"/>
				
					<ellipse transform="matrix(0.9248 -0.3805 0.3805 0.9248 -259.5417 146.1463)" cx="239.891" cy="729.557" rx="18.815" ry="18.815"/>
				
					<ellipse transform="matrix(0.8694 -0.4941 0.4941 0.8694 -347.4482 229.6056)" cx="260.6" cy="772.04" rx="18.815" ry="18.815"/>
				
					<ellipse transform="matrix(0.8003 -0.5996 0.5996 0.8003 -429.4239 333.8904)" cx="286.504" cy="811.571" rx="18.815" ry="18.815"/>
				
					<ellipse transform="matrix(0.7188 -0.6952 0.6952 0.7188 -500.0076 458.7739)" cx="317.168" cy="847.535" rx="18.815" ry="18.815"/>
				
					<ellipse transform="matrix(0.6265 -0.7794 0.7794 0.6265 -553.9183 602.9072)" cx="352.086" cy="879.386" rx="18.815" ry="18.815"/>
				
					<ellipse transform="matrix(0.5244 -0.8515 0.8515 0.5244 -586.1591 763.8718)" cx="390.702" cy="906.637" rx="18.815" ry="18.815"/>
				
					<ellipse transform="matrix(0.4138 -0.9103 0.9103 0.4138 -592.1215 938.1017)" cx="432.415" cy="928.858" rx="18.815" ry="18.815"/>
				
					<ellipse transform="matrix(0.2962 -0.9551 0.9551 0.2962 -567.8307 1120.7229)" cx="476.583" cy="945.679" rx="18.815" ry="18.815"/>
				
					<ellipse transform="matrix(0.1734 -0.9848 0.9848 0.1734 -510.4112 1305.4564)" cx="522.517" cy="956.804" rx="18.815" ry="18.815"/>
				
					<ellipse transform="matrix(0.0479 -0.9989 0.9989 0.0479 -418.7373 1484.7726)" cx="569.488" cy="962.04" rx="18.815" ry="18.815"/>
				<ellipse transform="matrix(0.997 -0.0773 0.0773 0.997 -72.4678 50.5529)" cx="616.745" cy="961.325" rx="18.815" ry="18.815"/>
				
					<ellipse transform="matrix(0.9797 -0.2005 0.2005 0.9797 -177.956 152.4324)" cx="663.548" cy="954.747" rx="18.815" ry="18.815"/>
				
					<ellipse transform="matrix(0.9469 -0.3214 0.3214 0.9469 -265.2532 277.913)" cx="709.172" cy="942.409" rx="18.815" ry="18.815"/>
				
					<ellipse transform="matrix(0.8989 -0.4382 0.4382 0.8989 -328.9399 423.3675)" cx="752.88" cy="924.429" rx="18.815" ry="18.815"/>
				
					<ellipse transform="matrix(0.8365 -0.548 0.548 0.8365 -363.9683 582.4792)" cx="793.968" cy="901.074" rx="18.815" ry="18.815"/>
				
					<ellipse transform="matrix(0.761 -0.6487 0.6487 0.761 -367.3856 748.1881)" cx="831.789" cy="872.73" rx="18.815" ry="18.815"/>
				
					<ellipse transform="matrix(0.6739 -0.7388 0.7388 0.6739 -338.1961 913.4513)" cx="865.761" cy="839.872" rx="18.815" ry="18.815"/>
				
					<ellipse transform="matrix(0.5766 -0.817 0.817 0.5766 -276.9901 1071.5867)" cx="895.37" cy="803.033" rx="18.815" ry="18.815"/>
				
					<ellipse transform="matrix(0.4701 -0.8826 0.8826 0.4701 -185.6586 1216.3455)" cx="920.156" cy="762.791" rx="18.815" ry="18.815"/>
				
					<ellipse transform="matrix(0.3558 -0.9346 0.9346 0.3558 -67.315 1341.8766)" cx="939.718" cy="719.768" rx="18.815" ry="18.815"/>
				
					<ellipse transform="matrix(0.2353 -0.9719 0.9719 0.2353 73.5874 1442.7888)" cx="953.723" cy="674.628" rx="18.815" ry="18.815"/>
				
					<ellipse transform="matrix(0.1108 -0.9938 0.9938 0.1108 231.0902 1514.4595)" cx="961.92" cy="628.082" rx="18.815" ry="18.815"/>
				
					<ellipse transform="matrix(0.9999 -0.0149 0.0149 0.9999 -8.5547 14.4423)" cx="964.179" cy="580.874" rx="18.815" ry="18.815"/>
				
					<ellipse transform="matrix(0.9903 -0.1392 0.1392 0.9903 -64.9364 138.872)" cx="960.513" cy="533.753" rx="18.815" ry="18.815"/>
			</g>
		</g>
		<g>
			<g>
				
					<ellipse transform="matrix(0.9671 -0.2544 0.2544 0.9671 -93.6042 276.5233)" cx="1022.195" cy="500.121" rx="22.135" ry="22.135"/>
				
					<ellipse transform="matrix(0.9491 -0.315 0.315 0.9491 -89.2869 340.3123)" cx="1008.048" cy="446.348" rx="22.135" ry="22.135"/>
				
					<ellipse transform="matrix(0.9017 -0.4323 0.4323 0.9017 -73.6544 465.5486)" cx="987.23" cy="394.79" rx="22.135" ry="22.135"/>
				
					<ellipse transform="matrix(0.8402 -0.5424 0.5424 0.8402 -34.3347 576.0463)" cx="960.073" cy="346.271" rx="22.135" ry="22.135"/>
				
					<ellipse transform="matrix(0.7656 -0.6433 0.6433 0.7656 23.3151 667.0788)" cx="927.037" cy="301.546" rx="22.135" ry="22.135"/>
				<ellipse transform="matrix(0.6793 -0.7338 0.7338 0.6793 93.2281 735.9413)" cx="888.671" cy="261.3" rx="22.135" ry="22.135"/>
				
					<ellipse transform="matrix(0.5825 -0.8128 0.8128 0.5825 169.2017 781.7247)" cx="845.588" cy="226.149" rx="22.135" ry="22.135"/>
				
					<ellipse transform="matrix(0.4763 -0.8793 0.8793 0.4763 245.2155 805.0282)" cx="798.457" cy="196.647" rx="22.135" ry="22.135"/>
				
					<ellipse transform="matrix(0.3621 -0.9321 0.9321 0.3621 315.5984 807.7574)" cx="748.001" cy="173.281" rx="22.135" ry="22.135"/>
				
					<ellipse transform="matrix(0.2417 -0.9703 0.9703 0.2417 375.1975 793.0353)" cx="695.006" cy="156.455" rx="22.135" ry="22.135"/>
				
					<ellipse transform="matrix(0.1175 -0.9931 0.9931 0.1175 419.6459 765.1267)" cx="640.311" cy="146.455" rx="22.135" ry="22.135"/>
				<ellipse transform="matrix(1 -0.0076 0.0076 1 -1.0685 4.4291)" cx="584.79" cy="143.417" rx="22.135" ry="22.135"/>
				
					<ellipse transform="matrix(0.9913 -0.1317 0.1317 0.9913 -14.7863 70.9815)" cx="529.322" cy="147.295" rx="22.135" ry="22.135"/>
				
					<ellipse transform="matrix(0.9671 -0.2545 0.2545 0.9671 -24.5878 126.055)" cx="474.765" cy="158.032" rx="22.135" ry="22.135"/>
				
					<ellipse transform="matrix(0.9273 -0.3744 0.3744 0.9273 -35.0317 170.7665)" cx="421.994" cy="175.546" rx="22.135" ry="22.135"/>
				
					<ellipse transform="matrix(0.8727 -0.4883 0.4883 0.8727 -50.1101 207.0111)" cx="371.856" cy="199.584" rx="22.135" ry="22.135"/>
				
					<ellipse transform="matrix(0.8044 -0.5941 0.5941 0.8044 -72.8905 238.095)" cx="325.143" cy="229.744" rx="22.135" ry="22.135"/>
				<ellipse transform="matrix(0.7238 -0.69 0.69 0.7238 -105.163 268.2951)" cx="282.577" cy="265.519" rx="22.135" ry="22.135"/>
				
					<ellipse transform="matrix(0.6322 -0.7748 0.7748 0.6322 -147.3018 302.3621)" cx="244.805" cy="306.323" rx="22.135" ry="22.135"/>
				
					<ellipse transform="matrix(0.5305 -0.8477 0.8477 0.5305 -198.2475 345.0866)" cx="212.414" cy="351.517" rx="22.135" ry="22.135"/>
				
					<ellipse transform="matrix(0.4201 -0.9075 0.9075 0.4201 -255.5408 400.8942)" cx="185.924" cy="400.404" rx="22.135" ry="22.135"/>
				
					<ellipse transform="matrix(0.3026 -0.9531 0.9531 0.3026 -315.4114 473.4117)" cx="165.784" cy="452.231" rx="22.135" ry="22.135"/>
				
					<ellipse transform="matrix(0.1799 -0.9837 0.9837 0.1799 -372.9892 564.983)" cx="152.344" cy="506.185" rx="22.135" ry="22.135"/>
				
					<ellipse transform="matrix(0.0549 -0.9985 0.9985 0.0549 -422.7403 676.1961)" cx="145.819" cy="561.403" rx="22.135" ry="22.135"/>
				
					<ellipse transform="matrix(0.9976 -0.0698 0.0698 0.9976 -42.6838 11.7051)" cx="146.253" cy="617.005" rx="22.135" ry="22.135"/>
				
					<ellipse transform="matrix(0.9811 -0.1933 0.1933 0.9811 -127.0272 42.3605)" cx="153.561" cy="672.126" rx="22.135" ry="22.135"/>
				
					<ellipse transform="matrix(0.9491 -0.315 0.315 0.9491 -220.1521 89.8014)" cx="167.708" cy="725.899" rx="22.135" ry="22.135"/>
				
					<ellipse transform="matrix(0.9017 -0.4323 0.4323 0.9017 -317.5526 157.8878)" cx="188.526" cy="777.457" rx="22.135" ry="22.135"/>
				
					<ellipse transform="matrix(0.8402 -0.5424 0.5424 0.8402 -413.4924 249.006)" cx="215.683" cy="825.977" rx="22.135" ry="22.135"/>
				
					<ellipse transform="matrix(0.7656 -0.6433 0.6433 0.7656 -501.8474 364.1122)" cx="248.719" cy="870.702" rx="22.135" ry="22.135"/>
				
					<ellipse transform="matrix(0.6793 -0.7338 0.7338 0.6793 -576.4311 502.8011)" cx="287.085" cy="910.948" rx="22.135" ry="22.135"/>
				
					<ellipse transform="matrix(0.5825 -0.8128 0.8128 0.5825 -631.1675 663.3483)" cx="330.167" cy="946.098" rx="22.135" ry="22.135"/>
				
					<ellipse transform="matrix(0.4763 -0.8793 0.8793 0.4763 -660.2311 842.6266)" cx="377.299" cy="975.6" rx="22.135" ry="22.135"/>
				
					<ellipse transform="matrix(0.3621 -0.9321 0.9321 0.3621 -658.3127 1035.917)" cx="427.754" cy="998.966" rx="22.135" ry="22.135"/>
				
					<ellipse transform="matrix(0.2417 -0.9703 0.9703 0.2417 -621.1262 1236.7545)" cx="480.749" cy="1015.792" rx="22.135" ry="22.135"/>
				
					<ellipse transform="matrix(0.1175 -0.9931 0.9931 0.1175 -546.1476 1437.0193)" cx="535.445" cy="1025.792" rx="22.135" ry="22.135"/>
				<ellipse transform="matrix(1 -0.0076 0.0076 1 -7.7682 4.5013)" cx="590.965" cy="1028.831" rx="22.135" ry="22.135"/>
				
					<ellipse transform="matrix(0.9913 -0.1317 0.1317 0.9913 -129.3328 94.0441)" cx="646.433" cy="1024.952" rx="22.135" ry="22.135"/>
				
					<ellipse transform="matrix(0.9671 -0.2545 0.2545 0.9671 -235.0744 211.8418)" cx="700.991" cy="1014.216" rx="22.135" ry="22.135"/>
				
					<ellipse transform="matrix(0.9273 -0.3744 0.3744 0.9273 -318.3477 354.711)" cx="753.762" cy="996.701" rx="22.135" ry="22.135"/>
				
					<ellipse transform="matrix(0.8727 -0.4883 0.4883 0.8727 -372.6194 516.4486)" cx="803.9" cy="972.664" rx="22.135" ry="22.135"/>
				
					<ellipse transform="matrix(0.8044 -0.5941 0.5941 0.8044 -393.5456 689.6707)" cx="850.612" cy="942.503" rx="22.135" ry="22.135"/>
				<ellipse transform="matrix(0.7238 -0.69 0.69 0.7238 -378.9534 866.6688)" cx="893.179" cy="906.729" rx="22.135" ry="22.135"/>
				
					<ellipse transform="matrix(0.6322 -0.7748 0.7748 0.6322 -328.51 1039.8562)" cx="930.951" cy="865.924" rx="22.135" ry="22.135"/>
				
					<ellipse transform="matrix(0.5305 -0.8477 0.8477 0.5305 -243.4414 1201.912)" cx="963.342" cy="820.73" rx="22.135" ry="22.135"/>
				
					<ellipse transform="matrix(0.4201 -0.9075 0.9075 0.4201 -126.4558 1345.7861)" cx="989.832" cy="771.843" rx="22.135" ry="22.135"/>
				
					<ellipse transform="matrix(0.3026 -0.9531 0.9531 0.3026 18.1161 1464.7902)" cx="1009.972" cy="720.016" rx="22.135" ry="22.135"/>
				
					<ellipse transform="matrix(0.1799 -0.9837 0.9837 0.1799 184.109 1552.957)" cx="1023.412" cy="666.063" rx="22.135" ry="22.135"/>
				
					<ellipse transform="matrix(0.0549 -0.9985 0.9985 0.0549 363.4974 1605.7106)" cx="1029.937" cy="610.844" rx="22.135" ry="22.135"/>
				
					<ellipse transform="matrix(0.9976 -0.0698 0.0698 0.9976 -36.2239 73.167)" cx="1029.502" cy="555.242" rx="22.135" ry="22.135"/>
			</g>
		</g>
		<g>
			<g>
				
					<ellipse transform="matrix(0.9825 -0.1863 0.1863 0.9825 -77.7041 214.9615)" cx="1104.652" cy="520.833" rx="26.041" ry="26.041"/>
				
					<ellipse transform="matrix(0.9687 -0.2481 0.2481 0.9687 -79.1128 285.2849)" cx="1092.463" cy="456.564" rx="26.041" ry="26.041"/>
				
					<ellipse transform="matrix(0.9297 -0.3683 0.3683 0.9297 -69.865 422.6605)" cx="1072.261" cy="394.347" rx="26.041" ry="26.041"/>
				
					<ellipse transform="matrix(0.8759 -0.4824 0.4824 0.8759 -32.13 545.4114)" cx="1044.372" cy="335.176" rx="26.041" ry="26.041"/>
				
					<ellipse transform="matrix(0.8086 -0.5884 0.5884 0.8086 28.4491 647.4025)" cx="1009.271" cy="279.975" rx="26.041" ry="26.041"/>
				
					<ellipse transform="matrix(0.7289 -0.6847 0.6847 0.7289 105.1517 724.7051)" cx="967.547" cy="229.594" rx="26.041" ry="26.041"/>
				
					<ellipse transform="matrix(0.6378 -0.7702 0.7702 0.6378 190.8428 775.4261)" cx="919.87" cy="184.805" rx="26.041" ry="26.041"/>
				
					<ellipse transform="matrix(0.5365 -0.8439 0.8439 0.5365 278.3589 799.449)" cx="866.977" cy="146.314" rx="26.041" ry="26.041"/>
				
					<ellipse transform="matrix(0.4263 -0.9046 0.9046 0.4263 360.7253 798.2629)" cx="809.68" cy="114.751" rx="26.041" ry="26.041"/>
				
					<ellipse transform="matrix(0.3088 -0.9511 0.9511 0.3088 431.3825 774.9221)" cx="748.866" cy="90.654" rx="26.041" ry="26.041"/>
				
					<ellipse transform="matrix(0.1865 -0.9825 0.9825 0.1865 484.5485 734.0239)" cx="685.495" cy="74.43" rx="26.041" ry="26.041"/>
				
					<ellipse transform="matrix(0.0622 -0.9981 0.9981 0.0622 515.8029 681.5664)" cx="620.586" cy="66.307" rx="26.041" ry="26.041"/>
				<ellipse transform="matrix(0.9981 -0.0622 0.0622 0.9981 -3.0495 34.6633)" cx="555.17" cy="66.307" rx="26.041" ry="26.041"/>
				<ellipse transform="matrix(0.9825 -0.1865 0.1865 0.9825 -5.2802 92.7229)" cx="490.26" cy="74.43" rx="26.041" ry="26.041"/>
				<ellipse transform="matrix(0.9511 -0.3088 0.3088 0.9511 -7.13 136.2604)" cx="426.89" cy="90.654" rx="26.041" ry="26.041"/>
				
					<ellipse transform="matrix(0.9046 -0.4263 0.4263 0.9046 -13.9889 167.0001)" cx="366.076" cy="114.751" rx="26.041" ry="26.041"/>
				
					<ellipse transform="matrix(0.8439 -0.5365 0.5365 0.8439 -30.2963 188.5048)" cx="308.778" cy="146.314" rx="26.041" ry="26.041"/>
				
					<ellipse transform="matrix(0.7702 -0.6378 0.6378 0.7702 -59.0668 205.6701)" cx="255.886" cy="184.805" rx="26.041" ry="26.041"/>
				
					<ellipse transform="matrix(0.6847 -0.7289 0.7289 0.6847 -101.686 224.151)" cx="208.208" cy="229.594" rx="26.041" ry="26.041"/>
				
					<ellipse transform="matrix(0.5884 -0.8086 0.8086 0.5884 -157.8561 249.8684)" cx="166.485" cy="279.975" rx="26.041" ry="26.041"/>
				
					<ellipse transform="matrix(0.4824 -0.8759 0.8759 0.4824 -225.5918 288.5636)" cx="131.384" cy="335.176" rx="26.041" ry="26.041"/>
				
					<ellipse transform="matrix(0.3683 -0.9297 0.9297 0.3683 -301.2488 345.3192)" cx="103.494" cy="394.347" rx="26.041" ry="26.041"/>
				
					<ellipse transform="matrix(0.2481 -0.9687 0.9687 0.2481 -379.6624 423.9915)" cx="83.293" cy="456.564" rx="26.041" ry="26.041"/>
				
					<ellipse transform="matrix(0.1244 -0.9922 0.9922 0.1244 -454.5291 526.5979)" cx="71.104" cy="520.833" rx="26.041" ry="26.041"/>
				<circle cx="67.051" cy="586.123" r="26.041"/>
				
					<ellipse transform="matrix(0.9922 -0.1244 0.1244 0.9922 -80.4774 13.9039)" cx="71.104" cy="651.414" rx="26.041" ry="26.041"/>
				
					<ellipse transform="matrix(0.9687 -0.2481 0.2481 0.9687 -174.9397 43.0347)" cx="83.293" cy="715.683" rx="26.041" ry="26.041"/>
				
					<ellipse transform="matrix(0.9297 -0.3683 0.3683 0.9297 -279.2419 92.8069)" cx="103.494" cy="777.9" rx="26.041" ry="26.041"/>
				
					<ellipse transform="matrix(0.8759 -0.4824 0.4824 0.8759 -387.523 167.2312)" cx="131.384" cy="837.072" rx="26.041" ry="26.041"/>
				
					<ellipse transform="matrix(0.8086 -0.5884 0.5884 0.8086 -493.112 268.7348)" cx="166.485" cy="892.272" rx="26.041" ry="26.041"/>
				
					<ellipse transform="matrix(0.7289 -0.6847 0.6847 0.7289 -588.952 398.1522)" cx="208.208" cy="942.653" rx="26.041" ry="26.041"/>
				
					<ellipse transform="matrix(0.6378 -0.7702 0.7702 0.6378 -667.8506 554.7405)" cx="255.886" cy="987.442" rx="26.041" ry="26.041"/>
				
					<ellipse transform="matrix(0.5365 -0.8439 0.8439 0.5365 -722.6623 736.0811)" cx="308.778" cy="1025.934" rx="26.041" ry="26.041"/>
				
					<ellipse transform="matrix(0.4263 -0.9046 0.9046 0.4263 -746.5771 937.8529)" cx="366.076" cy="1057.497" rx="26.041" ry="26.041"/>
				
					<ellipse transform="matrix(0.3088 -0.9511 0.9511 0.3088 -733.6672 1153.6071)" cx="426.89" cy="1081.593" rx="26.041" ry="26.041"/>
				
					<ellipse transform="matrix(0.1865 -0.9825 0.9825 0.1865 -679.7202 1374.7725)" cx="490.26" cy="1097.818" rx="26.041" ry="26.041"/>
				
					<ellipse transform="matrix(0.0622 -0.9981 0.9981 0.0622 -583.1633 1591.239)" cx="555.17" cy="1105.94" rx="26.041" ry="26.041"/>
				
					<ellipse transform="matrix(0.9981 -0.0622 0.0622 0.9981 -67.5942 40.746)" cx="620.586" cy="1105.94" rx="26.041" ry="26.041"/>
				
					<ellipse transform="matrix(0.9825 -0.1865 0.1865 0.9825 -192.6841 147.0767)" cx="685.495" cy="1097.818" rx="26.041" ry="26.041"/>
				
					<ellipse transform="matrix(0.9511 -0.3088 0.3088 0.9511 -297.4081 284.1255)" cx="748.866" cy="1081.593" rx="26.041" ry="26.041"/>
				
					<ellipse transform="matrix(0.9046 -0.4263 0.4263 0.9046 -373.5409 446.0482)" cx="809.68" cy="1057.497" rx="26.041" ry="26.041"/>
				
					<ellipse transform="matrix(0.8439 -0.5365 0.5365 0.8439 -415.0853 625.3029)" cx="866.977" cy="1025.934" rx="26.041" ry="26.041"/>
				
					<ellipse transform="matrix(0.7702 -0.6378 0.6378 0.7702 -418.4054 813.5978)" cx="919.87" cy="987.442" rx="26.041" ry="26.041"/>
				
					<ellipse transform="matrix(0.6847 -0.7289 0.7289 0.6847 -381.9593 1002.4457)" cx="967.547" cy="942.653" rx="26.041" ry="26.041"/>
				
					<ellipse transform="matrix(0.5884 -0.8086 0.8086 0.5884 -306.0341 1183.3901)" cx="1009.271" cy="892.272" rx="26.041" ry="26.041"/>
				
					<ellipse transform="matrix(0.4824 -0.8759 0.8759 0.4824 -192.6806 1348.0542)" cx="1044.372" cy="837.072" rx="26.041" ry="26.041"/>
				
					<ellipse transform="matrix(0.3683 -0.9297 0.9297 0.3683 -45.8885 1488.2621)" cx="1072.261" cy="777.9" rx="26.041" ry="26.041"/>
				
					<ellipse transform="matrix(0.2481 -0.9687 0.9687 0.2481 128.1383 1596.4528)" cx="1092.463" cy="715.683" rx="26.041" ry="26.041"/>
				
					<ellipse transform="matrix(0.1244 -0.9922 0.9922 0.1244 320.8887 1666.4565)" cx="1104.652" cy="651.414" rx="26.041" ry="26.041"/>
				<circle cx="1108.705" cy="586.124" r="26.041"/>
			</g>
		</g>
	</g>
	<path d="M951.982,951.021v25.088c0,44.922-30.186,31.825-30.186-8.087v-83.958c0-70.466-107.006-69.475-107.006,0v79.2
		c0,50.51-28.075,32.381-28.075-7.52V828.922c0-70.392-107.458-69.544-107.458,0v139.1c0,39.901-24.567,21.489-24.567,0V614.958
		c0-85.968-98.246-85.968-98.246,0v441.122c0,44.04,17.047,73.764,37.402,65.141c44.323-18.78,115.167,0.157,144.576,39.639
		c17.425,23.391,26.71,52.075,32.612,71.684c4.422,14.673-9.516,16.973-13.885,4.453c-9.253-26.552-14.211-43.672-26.373-59.647
		c-37.37-49.05-93.846-54.847-131.436-37.559c-46.624,21.458-161.948-114.012-191.262-146.214
		c-43.357-47.6-115.335-8.844-113.655,33.179c1.124,28.285,18.17,52.81,47.716,85.349c29.556,32.549,126.657,139.954,134.514,217.73
		c5.609,55.404,50.636,118.885,81.883,149.848c24.241,24.021,27.476,103.456,27.476,160.583h347.518
		c0-32.192-7.447-81.368,33.883-122.687c45.416-45.416,90.128-95.18,90.128-190.349V951.021c0-29.149-23.63-52.778-52.778-52.778
		C975.633,898.243,951.982,921.85,951.982,951.021z"/>
</g>
</svg>
